# xmcd
#
# Track frame offsets:
#	150
#	13672
#	26047
#	39322
#	58072
#	72927
#	85854
#	98130
#	108597
#	126100
#	136915
#	151897
#	162437
#	176227
#	184252
#	200800
#	219559
#	234135
#	254959
#	267097
#	279697
#	291247
#
# Disc length: 4095 seconds
# Revision: 6
# Processed by: cddbd v1.5.2PL0 Copyright (c) Steve Scherf et al.
# Submitted via: dBpowerAMP V12.0
#
DISCID=4e0ffd16
DTITLE=Various Artist - The All Time Greatest Country Songs, Disc 1
DYEAR=1997
DGENRE=Country
TTITLE0=Kenny Rogers - Ruby Don't Take Your Love to Town
TTITLE1=Harry Nilsson - Everybody's Talkin'
TTITLE2=Charlie Rich - Behind Closed Doors
TTITLE3=Juice Newton - Angel of the Morning
TTITLE4=Bob Dylan - Lay Lady Lay
TTITLE5=Olivia Newton John - If Not for You
TTITLE6=Patsy Cline - Crazy
TTITLE7=Jim Reeves - He'll Have to Go
TTITLE8=Linda Ronstadt - Blue Bayou
TTITLE9=Dolly Parton - Silver Threads and Golden Needles
TTITLE10=Billie Jo Spears - I Will Survive
TTITLE11=Everly Brothers, The - Bye Bye Love
TTITLE12=Reba McEntire - Cathy's Clown
TTITLE13=John D. Loudermilk - Language of Love
TTITLE14=Emmylou Harris and Gram Parsons - Love Hurts
TTITLE15=Kris Kristofferson - Me and Bobby McGee
TTITLE16=John Denver - Take Me Home, Country Roads
TTITLE17=Shawn Colvin - I Don't Know Why
TTITLE18=Glen Campbell - By the Time I Get to Phoenix
TTITLE19=Roy Orbison - Crying
TTITLE20=Crystal Gayle - Don't It Make My Brown Eyes Blue
TTITLE21=Willie Nelson - Always on My Mind
EXTD=
EXTT0=
EXTT1=
EXTT2=
EXTT3=
EXTT4=
EXTT5=
EXTT6=
EXTT7=
EXTT8=
EXTT9=
EXTT10=
EXTT11=
EXTT12=
EXTT13=
EXTT14=
EXTT15=
EXTT16=
EXTT17=
EXTT18=
EXTT19=
EXTT20=
EXTT21=
PLAYORDER=
